<?xml version="1.0" encoding="UTF-8" standalone="no"?>
<!-- Created with Inkscape (http://www.inkscape.org/) -->

<svg
   xmlns:dc="http://purl.org/dc/elements/1.1/"
   xmlns:cc="http://creativecommons.org/ns#"
   xmlns:rdf="http://www.w3.org/1999/02/22-rdf-syntax-ns#"
   xmlns:svg="http://www.w3.org/2000/svg"
   xmlns="http://www.w3.org/2000/svg"
   xmlns:sodipodi="http://sodipodi.sourceforge.net/DTD/sodipodi-0.dtd"
   xmlns:inkscape="http://www.inkscape.org/namespaces/inkscape"
   version="1.1"
   id="svg192"
   width="360"
   height="360"
   viewBox="0 0 360 360.00001"
   sodipodi:docname="logo.svg"
   inkscape:version="0.92.3 (2405546, 2018-03-11)">
  <metadata
     id="metadata198">
    <rdf:RDF>
      <cc:Work
         rdf:about="">
        <dc:format>image/svg+xml</dc:format>
        <dc:type
           rdf:resource="http://purl.org/dc/dcmitype/StillImage" />
        <dc:title></dc:title>
      </cc:Work>
    </rdf:RDF>
  </metadata>
  <defs
     id="defs196" />
  <sodipodi:namedview
     pagecolor="#ffffff"
     bordercolor="#666666"
     borderopacity="1"
     objecttolerance="10"
     gridtolerance="10"
     guidetolerance="10"
     inkscape:pageopacity="0"
     inkscape:pageshadow="2"
     inkscape:window-width="1920"
     inkscape:window-height="1016"
     id="namedview194"
     showgrid="false"
     inkscape:zoom="1.3037281"
     inkscape:cx="-57.56328"
     inkscape:cy="151.48275"
     inkscape:window-x="1920"
     inkscape:window-y="27"
     inkscape:window-maximized="1"
     inkscape:current-layer="g202"
     fit-margin-top="0"
     fit-margin-left="0"
     fit-margin-right="0"
     fit-margin-bottom="0" />
  <g
     id="g202"
     transform="translate(-185.90449,73.954961)">
    <path
       style="fill:#ffffff;stroke-width:0.31999999"
       d="m 511.42438,233.17274 c 1.04286,-0.37259 2.44829,-1.28302 6.9333,-4.49133 0.75723,-0.54169 2.01692,-1.35356 2.79931,-1.80417 l 1.42253,-0.8193 -1.83932,-3.0913 c -1.76725,-2.97019 -1.97571,-3.18786 -5.32032,-5.55552 -3.49343,-2.47299 -5.44871,-4.59664 -6.96364,-7.56328 -0.67363,-1.31912 -2.27144,-3.17066 -6.96529,-8.07131 -4.43531,-4.63073 -7.15636,-8.13047 -8.51155,-10.94733 -1.77719,-3.69402 -3.38611,-5.86831 -6.14267,-8.30116 -4.0384,-3.56417 -6.81332,-6.47306 -9.57489,-10.03716 -1.42948,-1.84489 -2.98763,-3.71299 -3.46256,-4.15132 -0.47493,-0.43833 -1.26593,-1.66642 -1.7578,-2.72908 -0.71137,-1.53694 -1.35987,-2.3083 -3.17061,-3.77131 -2.48678,-2.00923 -2.74617,-2.3675 -3.4639,-4.78437 -0.26647,-0.8973 -0.89244,-2.36199 -1.39103,-3.25486 -1.48545,-2.66009 -2.02612,-5.04317 -1.77867,-7.83961 0.41722,-4.71483 0.88478,-6.72303 1.99431,-8.56559 l 1.0693,-1.77575 v -8.0862 c 0,-9.30507 0.25696,-10.78948 3.13306,-18.09963 3.47823,-8.84052 4.21754,-10.879944 5.47612,-15.106064 1.87765,-6.30489 3.37507,-9.34662 5.75468,-11.68957 1.90227,-1.87296 1.9935,-1.91945 5.3856,-2.74391 4.37234,-1.06272 5.91912,-1.09014 6.60286,-0.11708 1.4438,2.05474 1.33089,2.01584 2.66332,0.91754 1.43626,-1.18389 1.49427,-1.19072 2.71712,-0.31998 l 0.95155,0.67757 2.29785,-0.70092 c 1.26381,-0.3855 3.60853,-1.19732 5.21048,-1.80405 3.49165,-1.32244 5.87712,-3.30472 8.54128,-7.09766 1.6597,-2.36289 2.80905,-3.5399 6.66395,-6.82434 0.95011,-0.80951 3.23298,-3.47351 5.07304,-5.92 1.84007,-2.44649 4.63052,-5.77501 6.20102,-7.3967 1.57049,-1.62169 3.48682,-3.889686 4.2585,-5.039996 1.3821,-2.06023 1.86631,-2.36023 2.93061,-1.81573 0.29643,0.15165 0.9208,0.36684 1.38748,0.4782 0.79887,0.19061 0.87075,0.10977 1.22853,-1.38161 0.43959,-1.8324 0.39765,-2.07649 -1.47238,-8.5696 -1.67052,-5.80038 -1.82223,-8.52633 -0.72893,-13.09746 1.28367,-5.36704 0.34977,-9.58448 -2.53342,-11.440829 -0.67018,-0.43149 -2.1526,-0.9216002 -3.42232,-1.1314702 -1.232,-0.20363 -3.02643,-0.72782 -3.98762,-1.16486 -1.94519,-0.88445 -5.13238,-3.2152105 -5.13238,-3.7532605 0,-0.19103 0.9,-1.17472 2,-2.18599 1.90822,-1.75427999 1.95915,-1.83934999 1.10973,-1.85375999 -1.30004,-0.022 -2.9162,0.74362999 -4.64292,2.19961999 -2.76186,2.32883 -5.78335,2.88564 -7.89237,1.45442 l -1.19487,-0.81086 0.11022,1.69086 0.11021,1.69087 -1.04,0.1002705 c -0.572,0.0551 -1.04,-0.040901 -1.04,-0.2134705 0,-0.17256 -0.30902,-1.00968 -0.68671,-1.86027 l -0.68671,-1.54653 -0.55116,1.76 -0.55116,1.76 -1.92725,0.094401 -1.92725,0.0944 -2.25761,-1.9478905 c -1.24168,-1.07134 -2.34932,-2.23686 -2.46141,-2.59004 -0.25328,-0.798 0.42416,-1.88273999 2.45842,-3.93652 0.85297,-0.86114 1.55084,-1.76423 1.55084,-2.00686 0,-0.24263 -0.34938,-0.97806 -0.7764,-1.63428 -0.61354,-0.942871 -0.77148,-1.595878 -0.75296,-3.113142 0.0181,-1.4848655 -0.21602,-2.4927868 -1.03318,-4.4473708 l -1.05662,-2.52737 -0.8465,1.037175 c -0.93321,1.143417 -1.16447,1.042633 -1.90644,-0.830826 -0.51366,-1.297004 -1.47529,-2.188372 -3.07226,-2.847799 -0.7016,-0.289706 -1.75924,-0.891808 -2.35031,-1.338006 -1.04433,-0.788357 -1.10563,-0.796506 -2.17086,-0.288536 -1.48939,0.710242 -3.71023,0.660342 -5.23518,-0.117631 -0.69037,-0.3522 -2.44378,-0.917119 -3.89646,-1.255377 -2.29537,-0.534477 -2.76837,-0.558201 -3.61204,-0.181169 -1.80318,0.805839 -1.82257,0.844364 -1.29685,2.577404 0.64505,2.126444 0.6173,2.699515 -0.13069,2.699515 -0.55852,0 -3.6383,-1.47122 -5.34196,-2.551867 -0.59491,-0.37736 -0.80399,-0.341306 -1.69343,0.292028 l -1.01471,0.722541 -0.50949,-1.297031 -0.50949,-1.297032 -1.81161,1.394005 c -0.99639,0.766703 -2.00271,1.624259 -2.23627,1.90568 -0.69228,0.834143 -0.94137,0.609855 -1.47521,-1.328324 -0.92884,-3.37223 -0.92083,-3.371282 -1.96486,-0.232681 -0.84971,2.554429 -1.04729,2.883604 -1.78343,2.971285 -0.89951,0.10714 -1.00329,-0.07631 -1.36726,-2.416928 -0.11617,-0.747077 -0.31428,-1.422021 -0.44025,-1.499875 -0.12598,-0.07785 -0.83125,0.557566 -1.56728,1.412045 -0.73603,0.854479 -2.13715,2.010693 -3.11361,2.569364 -0.97646,0.558672 -2.21063,1.382008 -2.74261,1.829637 l -0.96722,0.81387 -1.66688,-0.843358 c -2.34982,-1.188905 -2.45614,-1.145957 -2.46706,0.99664 l -0.009,1.84 -2.57462,1.4207808 c -1.41604,0.781429 -3.21463,1.984145 -3.99687,2.672704 -1.64342,1.446589 -1.20804,1.576569 -5.56975,-1.662818 -1.32,-0.980347 -2.9569,-2.0368248 -3.63756,-2.3477278 -2.4028,-1.097527 -6.58258,-2.201046 -7.95971,-2.101472 l -1.36271,0.09853 -0.098,1.71547 c -0.0939,1.6445148 0.0204,1.9224708 2.76393,6.7200068 5.07714,8.87832 5.74983,10.4919 7.28909,17.4845302 1.39484,6.33656 1.13122,11.37099 -0.82184,15.69478 -0.7751,1.71597 -1.07656,2.04086 -2.66559,2.87282 -1.23284,0.64548 -2.00316,1.31439 -2.4698,2.14467 -0.55872,0.99411 -0.90511,1.2429 -1.96683,1.41268 -0.78778,0.12597 -1.99265,0.73439 -3.09984,1.5653 -0.99614,0.74758 -2.43845,1.54648 -3.20514,1.77532 -1.53793,0.45906 -1.49037,0.23769 -0.82797,3.85316 0.20785,1.13446 0.16967,1.18897 -1.82288,2.60227 -1.11935,0.79394 -2.92656,1.89024 -4.01603,2.436206 -1.18895,0.59582 -2.40316,1.51817 -3.03719,2.30714 -1.47063,1.83 -3.51328,3.24248 -6.44742,4.45834 -1.74478,0.72302 -3.07173,1.5625 -4.37058,2.765 -1.14869,1.06349 -2.81853,2.16727 -4.34724,2.87358 l -2.48213,1.14681 -5.78729,-0.19907 c -3.18301,-0.10949 -7.88957,-0.28185 -10.45902,-0.38302 l -4.67172,-0.18395 -2.03827,1.02892 c -1.99805,1.00861 -2.09848,1.02475 -5.08828,0.81778 -1.6775,-0.11613 -5.57001,-0.33191 -8.65001,-0.4795 -4.39307,-0.21052 -6.04828,-0.41921 -7.68,-0.9683 -1.54146,-0.51872 -3.3642,-0.77249 -7.04,-0.98012 -15.5095,-0.87611 -21.95591,-1.29458 -24.96,-1.6203 -3.76107,-0.4078 -9.74761,-0.20652 -15.2,0.51105 -2.14379,0.28214 -6.26142,0.46427 -10.53188,0.46584 -6.87308,0.003 -7.03847,-0.013 -8.35461,-0.7843 -1.81564,-1.06404 -2.28417,-1.89323 -2.45095,-4.33763 -0.11776,-1.72592 -0.34675,-2.39267 -1.3596,-3.95876 -2.68659,-4.154046 -2.88675,-4.886636 -2.89529,-10.596716 -0.007,-4.63476 0.0735,-5.39295 0.8493,-8 0.47134,-1.584 0.95282,-4.176 1.06997,-5.76 0.21942,-2.96681 1.37921,-9.73263 2.24901,-13.12 0.94537,-3.6816297 1.34821,-13.58908018 1.04683,-25.746045 l -0.10278,-4.146036 -1.16357,-0.653963 c -0.63992,-0.359679 -1.46807,-0.653962 -1.84028,-0.653962 -0.86625,0 -4.35489,3.656459 -5.51808,5.783499 -1.1724,2.1439 -2.70362,6.2238418 -2.99363,7.9765068 -0.37366,2.25823 -1.25609,4.29428001 -2.805,6.47204 -1.97455,2.77622 -2.25678,3.38756 -4.40167,9.5344602 -1.03916,2.97809 -2.46049,6.53494 -3.1585,7.9041 -1.54462,3.02982 -3.53456,9.32817 -3.91603,12.39466 -0.20662,1.66088 -0.52206,2.59888 -1.19764,3.56138 -0.77159,1.09927 -0.94095,1.70871 -1.06708,3.84 -0.10148,1.71456 -0.38874,3.05049 -0.88879,4.13336 -0.67431,1.46024 -0.74501,2.10311 -0.80942,7.359996 -0.0433,3.53402 0.0865,6.67387 0.3358,8.12477 0.43055,2.50548 0.15728,4.27044 -0.91445,5.9061 -0.68243,1.04152 -2.46162,5.3072 -2.46162,5.90184 0,0.27813 0.50931,1.48987 1.13181,2.69275 1.7966,3.4717 1.66634,4.33247 -1.78195,11.77454 -0.85627,1.848 -1.99928,5.016 -2.54002,7.04 -1.3129,4.91416 -2.83186,7.94288 -5.30313,10.574143 -2.13137,2.26937 -2.76887,3.76057 -2.01501,4.71343 0.40082,0.50663 0.37551,0.50773 -0.39442,0.0171 l -0.82271,-0.52432 -0.98897,1.80984 c -0.54393,0.99542 -1.51325,3.64609 -2.15403,5.89038 -1.43117,5.01249 -4.41617,12.8606 -6.35919,16.71947 -1.24195,2.4665 -1.49811,3.31647 -1.78425,5.92 -0.37827,3.44221 -1.01187,5.8079 -1.92115,7.17313 -0.61952,0.9302 -0.61914,0.93934 0.12185,2.90801 l 0.74336,1.97488 -0.96944,2.32207 c -1.1176,2.67699 -3.20992,5.0268 -6.15133,6.9084 -1.51897,0.97168 -2.51961,1.3189 -5.26348,1.82639 -5.5818,1.03237 -7.44532,1.70974 -8.8984,3.23444 -1.23069,1.2913 -2.64954,3.1763 -2.64954,3.51996 0,0.0927 0.828,-0.16994 1.84,-0.58357 1.50822,-0.61646 1.85891,-0.66881 1.9449,-0.29038 0.1743,0.76699 -1.11085,3.06115 -2.85188,5.0909 -2.82355,3.29188 -3.4408,5.33725 -2.11184,6.99807 l 0.73802,0.9223 1.03021,-1.30072 c 1.0855,-1.37057 3.0496,-2.31289 3.62384,-1.73864 0.31341,0.3134 -1.49907,4.2411 -2.91399,6.31476 -0.36028,0.528 -0.656,1.04927 -0.65715,1.15838 0,0.10911 0.65299,0.27222 1.4537,0.36247 0.8007,0.0902 1.54057,0.24885 1.64416,0.35244 0.10358,0.1036 0.01,0.82541 -0.20803,1.60404 -0.69287,2.47465 -3.57504,4.60969 -6.96205,5.1573 l -1.35011,0.21828 2.23011,1.11568 c 1.22656,0.61362 2.23011,1.23762 2.23011,1.38665 0,0.20686 -1.62186,1.60734 -2.83414,2.4473 -0.0628,0.0435 0.33254,0.55572 0.87852,1.13827 0.54596,0.58255 0.99332,1.17337 0.99415,1.31292 0,0.13955 -0.58208,1.02664 -1.29533,1.97132 l -1.2968,1.71759 1.22189,1.61439 c 0.67206,0.88792 2.14883,3.24082 3.28176,5.22868 1.13293,1.98786 2.7303,4.62229 3.54976,5.85429 0.81945,1.232 1.88489,3.032 2.36768,4 0.48278,0.968 1.47369,2.37669 2.20201,3.13043 1.77719,1.8392 3.45597,2.30957 8.24308,2.30957 3.82044,0 4.63689,-0.18293 10.11859,-2.26706 l 0.78897,-0.29996 -1.03547,-1.17934 c -1.92566,-2.19321 -3.82467,-7.55557 -3.82467,-10.80003 0,-2.15947 0.0415,-2.24209 2.88,-5.73523 0.792,-0.97466 1.85437,-2.78888 2.36084,-4.0316 0.50646,-1.24272 1.0354,-2.3303 1.17543,-2.41684 0.45027,-0.27828 2.58534,1.19784 2.88943,1.99766 0.16187,0.42573 0.2943,2.13787 0.2943,3.80476 v 3.0307 l 1.10881,-0.75345 c 1.52424,-1.03575 2.95791,-2.88967 4.09927,-5.3009 l 0.96152,-2.03128 -0.2239,-4.60554 -0.22391,-4.60554 1.53911,0.65944 c 1.86072,0.79724 4.84881,2.45326 5.62106,3.11523 0.30908,0.26494 0.65137,0.3923 0.76065,0.28303 0.32653,-0.32653 0.72855,-2.82697 0.74346,-4.62406 0.012,-1.44842 0.10008,-1.68 0.63888,-1.68 1.04104,0 2.04761,0.62527 2.99465,1.86025 0.86532,1.1284 0.89524,1.28911 0.78487,4.21643 -0.0639,1.6944 -0.38726,3.99334 -0.72959,5.18667 -0.33816,1.17884 -0.52496,2.23324 -0.4151,2.3431 0.24476,0.24475 2.64899,-1.21715 3.88953,-2.36505 2.16137,-1.99996 2.89834,-5.49075 2.14505,-10.16037 -0.21571,-1.33716 -0.27118,-2.55045 -0.12328,-2.6962 0.34983,-0.34474 3.44488,0.70942 4.26681,1.45326 0.35002,0.31676 1.01012,1.21364 1.4669,1.99307 0.75459,1.28762 0.80262,1.56849 0.52549,3.07299 -0.16775,0.91072 -0.41803,1.9246 -0.55616,2.25308 -0.22486,0.53467 -0.17651,0.55727 0.46158,0.21577 1.28033,-0.6852 3.27467,-2.92597 3.95642,-4.44527 0.73437,-1.63655 0.8805,-4.05873 0.44018,-7.29573 l -0.26771,-1.968 3.14771,1.08514 c 1.73123,0.59682 3.3997,1.08642 3.7077,1.088 0.8833,0.005 0.6776,-0.88327 -0.95994,-4.143 l -1.52006,-3.02586 0.0146,-3.37414 c 0.0127,-2.94277 0.13032,-3.66051 0.92003,-5.61414 0.49801,-1.232 1.02841,-2.37375 1.17867,-2.53723 0.16134,-0.17553 1.09482,0.49079 2.27997,1.62747 1.10373,1.05859 2.33078,2.0974 2.72678,2.30849 0.67689,0.36081 0.72156,0.32084 0.74611,-0.66747 0.0384,-1.54499 1.04002,-5.46071 1.43001,-5.59031 0.18486,-0.0614 0.92887,0.39567 1.65333,1.01579 l 1.31722,1.12748 1.43426,-1.63957 c 0.78885,-0.90177 1.5723,-1.58672 1.74101,-1.52212 0.64948,0.24871 3.60785,3.93911 3.97772,4.96198 0.2139,0.59152 0.46798,1.06868 0.56462,1.06035 0.0966,-0.008 0.80393,-0.80033 1.57174,-1.76 0.76781,-0.95967 1.53173,-1.74486 1.6976,-1.74486 0.16588,0 0.65367,0.79611 1.08398,1.76912 0.81915,1.85226 0.96642,3.69551 0.49142,6.15088 -0.1447,0.748 -0.19773,1.36 -0.11784,1.36 0.0799,0 1.09838,-0.86023 2.26332,-1.91163 1.48255,-1.33806 2.19349,-1.79413 2.36944,-1.52 0.13825,0.2154 0.61432,1.57067 1.05793,3.01172 0.94397,3.0665 1.7788,3.93991 3.76585,3.93991 h 1.28142 l -0.22063,1.68 c -0.82016,6.24498 -0.69449,6.74248 2.56482,10.15396 2.23745,2.34191 2.37805,2.57832 2.84032,4.77588 0.26749,1.2716 0.48634,3.21457 0.48634,4.31771 0,1.10314 0.161,2.80738 0.35778,3.78719 l 0.35777,1.78149 0.95537,-1.08811 c 0.52546,-0.59847 1.05352,-1.08812 1.17347,-1.08812 0.11995,0 0.99093,1.08063 1.9355,2.40139 1.00765,1.40896 2.29072,2.7641 3.10465,3.27903 1.19373,0.75521 1.53074,1.23363 2.41602,3.4298 1.4133,3.50609 4.56015,6.84373 8.15687,8.65142 2.97093,1.49318 4.55243,1.57916 8.57453,0.46621 2.56085,-0.70861 4.034,-0.81505 8.48804,-0.61325 3.36037,0.15224 5.41334,-0.58512 7.52705,-2.70349 2.58315,-2.58884 4.59606,-7.23111 3.13544,-7.23111 -0.29564,0 -2.09564,-0.37256 -4,-0.82791 l -3.46249,-0.82792 -0.005,-2.13208 c -0.007,-3.06908 -0.14881,-3.19531 -2.60794,-2.32238 -3.45855,1.22769 -3.14716,1.31779 -3.14716,-0.91069 0,-2.68335 -0.53238,-4.59635 -1.5502,-5.57038 -0.46739,-0.44727 -2.43217,-1.86626 -4.36619,-3.1533 -3.4953,-2.32603 -3.51766,-2.34902 -3.73021,-3.83493 -0.13428,-0.93875 -0.87967,-2.66034 -2.00362,-4.62765 -1.55166,-2.71596 -1.78979,-3.35762 -1.78979,-4.82276 0,-0.9295 0.0906,-1.69 0.20121,-1.69 0.11066,0 1.44517,1.21728 2.96556,2.70507 1.70762,1.671 3.35669,2.96708 4.31388,3.39049 l 1.54953,0.68543 1.88959,-0.99049 c 1.03927,-0.54478 2.31249,-0.9905 2.82937,-0.9905 0.51689,0 2.30785,0.72 3.97993,1.6 l 3.04014,1.6 h 3.30379 c 4.35656,0 8.15867,0.49319 11.22352,1.45585 3.2091,1.00797 8.05482,1.14758 7.77988,0.22415 -0.71535,-2.40259 -1.50214,-6.3035 -1.41839,-7.03239 0.0876,-0.76213 0.26032,-0.89942 1.222,-0.97113 1.35117,-0.10075 1.51922,0.009 2.83409,1.84352 2.50317,3.49327 3.89394,5.23248 6.36591,7.96078 1.452,1.60257 2.64,2.99178 2.64,3.08713 0,0.0953 -0.39361,0.92458 -0.8747,1.84273 -0.74128,1.41475 -0.8695,2.03541 -0.84071,4.06936 0.0187,1.32 0.34029,3.57599 0.71469,5.01332 0.40123,1.54037 0.68072,3.59783 0.68072,5.01126 0,2.30202 0.0497,2.46078 1.24159,3.96868 0.68287,0.8639 2.01102,2.06483 2.95144,2.66873 l 1.70985,1.09801 6.44545,0.0979 c 5.85782,0.089 6.62753,0.0366 8.44242,-0.5748 1.09832,-0.37 2.33463,-0.89399 2.74735,-1.16441 l 0.7504,-0.49168 -0.79322,-1.81351 c -0.43628,-0.99744 -1.43719,-2.7631 -2.22426,-3.9237 -0.82205,-1.2122 -1.43102,-2.47858 -1.43102,-2.97589 0,-1.62048 1.86725,-4.38686 5.96921,-8.84355 1.21007,-1.31471 2.77403,-3.10988 3.47546,-3.98927 0.70143,-0.87939 2.40279,-2.75139 3.7808,-4.16 3.44735,-3.52391 5.16395,-5.66565 6.52134,-8.13642 1.47493,-2.68473 1.94739,-3.22469 2.82161,-3.22469 0.67539,0 0.7201,0.16754 0.93676,3.51044 l 0.22752,3.51045 1.08225,0.20303 c 0.59523,0.11166 1.23831,0.39108 1.42906,0.62092 0.19075,0.22984 0.70347,1.75055 1.13936,3.37936 0.4359,1.6288 1.18496,3.69368 1.66459,4.58863 l 0.87211,1.62715 1.97333,0.0946 c 1.95108,0.0935 2.00246,0.12058 4.55462,2.4 3.07297,2.74458 3.32531,3.1008 6.27088,8.85247 l 0.56695,1.10704 1.50376,-3.18519 1.50376,-3.1852 0.89577,1.43815 c 0.49268,0.79098 1.57904,2.37415 2.41414,3.51815 0.83511,1.144 2.10901,3.32511 2.83089,4.84692 0.93325,1.96736 1.73042,3.13476 2.75871,4.0399 1.25477,1.10449 3.20377,1.94327 3.59841,1.54863 0.0709,-0.071 -0.0327,-1.02068 -0.23032,-2.11052 -0.35916,-1.98065 -0.1988,-3.84495 0.33073,-3.84495 0.38349,0 3.61058,4.05608 4.32816,5.44 0.39429,0.76041 0.62501,2.07004 0.71861,4.07905 l 0.13786,2.95904 1.25146,-0.70336 c 0.68831,-0.38685 2.19667,-1.68242 3.35191,-2.87905 1.15525,-1.19662 2.19493,-2.17089 2.31041,-2.16503 0.11548,0.006 0.53396,0.28093 0.92996,0.61129 0.68832,0.57422 0.72,0.81311 0.72,5.42935 0,2.88034 0.12428,4.82871 0.308,4.82871 0.1694,0 1.11207,-0.30084 2.09483,-0.66854 0.98277,-0.3677 1.96248,-0.60115 2.17714,-0.51878 0.21466,0.0824 0.87898,1.28322 1.47627,2.66855 0.59729,1.38532 1.18081,2.6294 1.29672,2.76462 0.11591,0.13522 1.18215,-0.76035 2.36943,-1.99015 l 2.15868,-2.23601 0.53947,0.97411 c 0.9557,1.72572 1.15171,1.87398 2.91498,2.20494 0.95453,0.17916 2.97053,0.88737 4.48,1.5738 1.50947,0.68642 3.50757,1.40541 4.44023,1.59775 2.41815,0.49869 12.71986,0.43037 14.18775,-0.0941 z"
       id="path204"
       inkscape:connector-curvature="0" />
  </g>
</svg>
